<mxfile host="app.diagrams.net" modified="2023-01-18T19:41:45.856Z" agent="5.0 (Windows NT 10.0; Win64; x64) AppleWebKit/537.36 (KHTML, like Gecko) Chrome/109.0.0.0 Safari/537.36" etag="8FXDe7OkROGDDLU9Vr4S" version="20.8.5" type="github" pages="2">
  <diagram id="C5RBs43oDa-KdzZeNtuy" name="Page-1">
    <mxGraphModel dx="578" dy="689" grid="1" gridSize="10" guides="1" tooltips="1" connect="1" arrows="1" fold="1" page="1" pageScale="1" pageWidth="827" pageHeight="1169" math="0" shadow="0">
      <root>
        <mxCell id="WIyWlLk6GJQsqaUBKTNV-0" />
        <mxCell id="WIyWlLk6GJQsqaUBKTNV-1" parent="WIyWlLk6GJQsqaUBKTNV-0" />
        <mxCell id="WIyWlLk6GJQsqaUBKTNV-2" value="" style="rounded=0;html=1;jettySize=auto;orthogonalLoop=1;fontSize=11;endArrow=block;endFill=0;endSize=8;strokeWidth=1;shadow=0;labelBackgroundColor=none;edgeStyle=orthogonalEdgeStyle;" parent="WIyWlLk6GJQsqaUBKTNV-1" source="WIyWlLk6GJQsqaUBKTNV-3" edge="1">
          <mxGeometry relative="1" as="geometry">
            <mxPoint x="220" y="170" as="targetPoint" />
          </mxGeometry>
        </mxCell>
        <mxCell id="WIyWlLk6GJQsqaUBKTNV-3" value="Lamp doesn&#39;t work" style="rounded=1;whiteSpace=wrap;html=1;fontSize=12;glass=0;strokeWidth=1;shadow=0;" parent="WIyWlLk6GJQsqaUBKTNV-1" vertex="1">
          <mxGeometry x="160" y="80" width="120" height="40" as="geometry" />
        </mxCell>
        <mxCell id="WIyWlLk6GJQsqaUBKTNV-4" value="Yes" style="rounded=0;html=1;jettySize=auto;orthogonalLoop=1;fontSize=11;endArrow=block;endFill=0;endSize=8;strokeWidth=1;shadow=0;labelBackgroundColor=none;edgeStyle=orthogonalEdgeStyle;" parent="WIyWlLk6GJQsqaUBKTNV-1" target="WIyWlLk6GJQsqaUBKTNV-10" edge="1">
          <mxGeometry y="20" relative="1" as="geometry">
            <mxPoint as="offset" />
            <mxPoint x="220" y="250" as="sourcePoint" />
          </mxGeometry>
        </mxCell>
        <mxCell id="WIyWlLk6GJQsqaUBKTNV-7" value="Plug in lamp" style="rounded=1;whiteSpace=wrap;html=1;fontSize=12;glass=0;strokeWidth=1;shadow=0;" parent="WIyWlLk6GJQsqaUBKTNV-1" vertex="1">
          <mxGeometry x="320" y="190" width="120" height="40" as="geometry" />
        </mxCell>
        <mxCell id="WIyWlLk6GJQsqaUBKTNV-8" value="No" style="rounded=0;html=1;jettySize=auto;orthogonalLoop=1;fontSize=11;endArrow=block;endFill=0;endSize=8;strokeWidth=1;shadow=0;labelBackgroundColor=none;edgeStyle=orthogonalEdgeStyle;" parent="WIyWlLk6GJQsqaUBKTNV-1" source="WIyWlLk6GJQsqaUBKTNV-10" target="WIyWlLk6GJQsqaUBKTNV-11" edge="1">
          <mxGeometry x="0.3333" y="20" relative="1" as="geometry">
            <mxPoint as="offset" />
          </mxGeometry>
        </mxCell>
        <mxCell id="WIyWlLk6GJQsqaUBKTNV-10" value="Bulb&lt;br&gt;burned out?" style="rhombus;whiteSpace=wrap;html=1;shadow=0;fontFamily=Helvetica;fontSize=12;align=center;strokeWidth=1;spacing=6;spacingTop=-4;" parent="WIyWlLk6GJQsqaUBKTNV-1" vertex="1">
          <mxGeometry x="170" y="290" width="100" height="80" as="geometry" />
        </mxCell>
        <mxCell id="WIyWlLk6GJQsqaUBKTNV-11" value="Repair Lamp" style="rounded=1;whiteSpace=wrap;html=1;fontSize=12;glass=0;strokeWidth=1;shadow=0;" parent="WIyWlLk6GJQsqaUBKTNV-1" vertex="1">
          <mxGeometry x="160" y="430" width="120" height="40" as="geometry" />
        </mxCell>
        <mxCell id="WIyWlLk6GJQsqaUBKTNV-12" value="Replace Bulb" style="rounded=1;whiteSpace=wrap;html=1;fontSize=12;glass=0;strokeWidth=1;shadow=0;" parent="WIyWlLk6GJQsqaUBKTNV-1" vertex="1">
          <mxGeometry x="320" y="310" width="120" height="40" as="geometry" />
        </mxCell>
        <mxCell id="6rkK3X_Y7HJ2kkGCpfae-19" value="" style="edgeStyle=none;curved=1;rounded=0;orthogonalLoop=1;jettySize=auto;html=1;fontSize=9;startSize=8;endSize=8;" edge="1" parent="WIyWlLk6GJQsqaUBKTNV-1" source="6rkK3X_Y7HJ2kkGCpfae-0" target="6rkK3X_Y7HJ2kkGCpfae-2">
          <mxGeometry relative="1" as="geometry" />
        </mxCell>
        <mxCell id="6rkK3X_Y7HJ2kkGCpfae-0" value="START" style="ellipse;whiteSpace=wrap;html=1;fontSize=16;" vertex="1" parent="WIyWlLk6GJQsqaUBKTNV-1">
          <mxGeometry x="110" y="570" width="120" height="80" as="geometry" />
        </mxCell>
        <mxCell id="6rkK3X_Y7HJ2kkGCpfae-20" value="" style="edgeStyle=none;curved=1;rounded=0;orthogonalLoop=1;jettySize=auto;html=1;fontSize=9;startSize=8;endSize=8;" edge="1" parent="WIyWlLk6GJQsqaUBKTNV-1" source="6rkK3X_Y7HJ2kkGCpfae-2" target="6rkK3X_Y7HJ2kkGCpfae-8">
          <mxGeometry relative="1" as="geometry" />
        </mxCell>
        <mxCell id="6rkK3X_Y7HJ2kkGCpfae-2" value="&quot;Give me a word!&quot;" style="shape=parallelogram;perimeter=parallelogramPerimeter;whiteSpace=wrap;html=1;fixedSize=1;fontSize=9;" vertex="1" parent="WIyWlLk6GJQsqaUBKTNV-1">
          <mxGeometry x="95" y="750" width="150" height="70" as="geometry" />
        </mxCell>
        <mxCell id="6rkK3X_Y7HJ2kkGCpfae-3" value="let vowels be a, e i, o u" style="rounded=0;whiteSpace=wrap;html=1;fontSize=9;" vertex="1" parent="WIyWlLk6GJQsqaUBKTNV-1">
          <mxGeometry x="110" y="670" width="120" height="60" as="geometry" />
        </mxCell>
        <mxCell id="6rkK3X_Y7HJ2kkGCpfae-4" style="edgeStyle=none;curved=1;rounded=0;orthogonalLoop=1;jettySize=auto;html=1;exitX=0.5;exitY=1;exitDx=0;exitDy=0;fontSize=9;startSize=8;endSize=8;" edge="1" parent="WIyWlLk6GJQsqaUBKTNV-1" source="6rkK3X_Y7HJ2kkGCpfae-3" target="6rkK3X_Y7HJ2kkGCpfae-3">
          <mxGeometry relative="1" as="geometry" />
        </mxCell>
        <mxCell id="6rkK3X_Y7HJ2kkGCpfae-7" value="store user&#39;s input in variable word" style="rounded=0;whiteSpace=wrap;html=1;fontSize=9;" vertex="1" parent="WIyWlLk6GJQsqaUBKTNV-1">
          <mxGeometry x="110" y="840" width="120" height="60" as="geometry" />
        </mxCell>
        <mxCell id="6rkK3X_Y7HJ2kkGCpfae-21" value="" style="edgeStyle=none;curved=1;rounded=0;orthogonalLoop=1;jettySize=auto;html=1;fontSize=9;startSize=8;endSize=8;" edge="1" parent="WIyWlLk6GJQsqaUBKTNV-1" source="6rkK3X_Y7HJ2kkGCpfae-8" target="6rkK3X_Y7HJ2kkGCpfae-11">
          <mxGeometry relative="1" as="geometry" />
        </mxCell>
        <mxCell id="6rkK3X_Y7HJ2kkGCpfae-8" value="word_length = length of the word" style="rounded=0;whiteSpace=wrap;html=1;fontSize=9;" vertex="1" parent="WIyWlLk6GJQsqaUBKTNV-1">
          <mxGeometry x="110" y="920" width="120" height="60" as="geometry" />
        </mxCell>
        <mxCell id="6rkK3X_Y7HJ2kkGCpfae-22" value="" style="edgeStyle=none;curved=1;rounded=0;orthogonalLoop=1;jettySize=auto;html=1;fontSize=9;startSize=8;endSize=8;" edge="1" parent="WIyWlLk6GJQsqaUBKTNV-1" source="6rkK3X_Y7HJ2kkGCpfae-11" target="6rkK3X_Y7HJ2kkGCpfae-16">
          <mxGeometry relative="1" as="geometry" />
        </mxCell>
        <mxCell id="6rkK3X_Y7HJ2kkGCpfae-11" value="index = 1" style="rounded=0;whiteSpace=wrap;html=1;fontSize=9;" vertex="1" parent="WIyWlLk6GJQsqaUBKTNV-1">
          <mxGeometry x="110" y="1000" width="120" height="60" as="geometry" />
        </mxCell>
        <mxCell id="6rkK3X_Y7HJ2kkGCpfae-14" value="the letter at index is a vowel" style="rhombus;whiteSpace=wrap;html=1;fontSize=9;" vertex="1" parent="WIyWlLk6GJQsqaUBKTNV-1">
          <mxGeometry x="270" y="1050" width="96" height="100" as="geometry" />
        </mxCell>
        <mxCell id="6rkK3X_Y7HJ2kkGCpfae-15" value="" style="endArrow=classic;html=1;rounded=0;fontSize=9;startSize=8;endSize=8;curved=1;exitX=0.5;exitY=0;exitDx=0;exitDy=0;entryX=0.5;entryY=1;entryDx=0;entryDy=0;" edge="1" parent="WIyWlLk6GJQsqaUBKTNV-1" source="6rkK3X_Y7HJ2kkGCpfae-14" target="6rkK3X_Y7HJ2kkGCpfae-17">
          <mxGeometry width="50" height="50" relative="1" as="geometry">
            <mxPoint x="430" y="960" as="sourcePoint" />
            <mxPoint x="618" y="850" as="targetPoint" />
          </mxGeometry>
        </mxCell>
        <mxCell id="6rkK3X_Y7HJ2kkGCpfae-24" value="" style="edgeStyle=none;curved=1;rounded=0;orthogonalLoop=1;jettySize=auto;html=1;fontSize=9;startSize=8;endSize=8;" edge="1" parent="WIyWlLk6GJQsqaUBKTNV-1" source="6rkK3X_Y7HJ2kkGCpfae-16" target="6rkK3X_Y7HJ2kkGCpfae-14">
          <mxGeometry relative="1" as="geometry" />
        </mxCell>
        <mxCell id="6rkK3X_Y7HJ2kkGCpfae-16" value="count = 0" style="rounded=0;whiteSpace=wrap;html=1;fontSize=9;" vertex="1" parent="WIyWlLk6GJQsqaUBKTNV-1">
          <mxGeometry x="110" y="1080" width="120" height="60" as="geometry" />
        </mxCell>
        <mxCell id="6rkK3X_Y7HJ2kkGCpfae-25" value="" style="edgeStyle=none;curved=1;rounded=0;orthogonalLoop=1;jettySize=auto;html=1;fontSize=9;startSize=8;endSize=8;" edge="1" parent="WIyWlLk6GJQsqaUBKTNV-1" source="6rkK3X_Y7HJ2kkGCpfae-17" target="6rkK3X_Y7HJ2kkGCpfae-18">
          <mxGeometry relative="1" as="geometry" />
        </mxCell>
        <mxCell id="6rkK3X_Y7HJ2kkGCpfae-17" value="count +=1" style="rounded=0;whiteSpace=wrap;html=1;fontSize=9;" vertex="1" parent="WIyWlLk6GJQsqaUBKTNV-1">
          <mxGeometry x="258" y="940" width="120" height="60" as="geometry" />
        </mxCell>
        <mxCell id="6rkK3X_Y7HJ2kkGCpfae-27" style="edgeStyle=none;curved=1;rounded=0;orthogonalLoop=1;jettySize=auto;html=1;fontSize=9;startSize=8;endSize=8;" edge="1" parent="WIyWlLk6GJQsqaUBKTNV-1" source="6rkK3X_Y7HJ2kkGCpfae-18" target="6rkK3X_Y7HJ2kkGCpfae-28">
          <mxGeometry relative="1" as="geometry">
            <mxPoint x="318" y="790" as="targetPoint" />
          </mxGeometry>
        </mxCell>
        <mxCell id="6rkK3X_Y7HJ2kkGCpfae-18" value="index += 1" style="rounded=0;whiteSpace=wrap;html=1;fontSize=9;" vertex="1" parent="WIyWlLk6GJQsqaUBKTNV-1">
          <mxGeometry x="258" y="830" width="120" height="60" as="geometry" />
        </mxCell>
        <mxCell id="6rkK3X_Y7HJ2kkGCpfae-28" value="END" style="ellipse;whiteSpace=wrap;html=1;fontSize=9;" vertex="1" parent="WIyWlLk6GJQsqaUBKTNV-1">
          <mxGeometry x="280.5" y="750" width="75" height="50" as="geometry" />
        </mxCell>
        <mxCell id="6rkK3X_Y7HJ2kkGCpfae-30" style="edgeStyle=none;curved=1;rounded=0;orthogonalLoop=1;jettySize=auto;html=1;fontSize=9;startSize=8;endSize=8;" edge="1" parent="WIyWlLk6GJQsqaUBKTNV-1" source="6rkK3X_Y7HJ2kkGCpfae-29">
          <mxGeometry relative="1" as="geometry">
            <mxPoint x="475" y="720" as="targetPoint" />
          </mxGeometry>
        </mxCell>
        <mxCell id="6rkK3X_Y7HJ2kkGCpfae-29" value="START" style="ellipse;whiteSpace=wrap;html=1;fontSize=9;" vertex="1" parent="WIyWlLk6GJQsqaUBKTNV-1">
          <mxGeometry x="430" y="620" width="90" height="60" as="geometry" />
        </mxCell>
        <mxCell id="6rkK3X_Y7HJ2kkGCpfae-37" style="edgeStyle=none;curved=1;rounded=0;orthogonalLoop=1;jettySize=auto;html=1;entryX=0.5;entryY=0;entryDx=0;entryDy=0;fontSize=9;startSize=8;endSize=8;" edge="1" parent="WIyWlLk6GJQsqaUBKTNV-1" source="6rkK3X_Y7HJ2kkGCpfae-32" target="6rkK3X_Y7HJ2kkGCpfae-35">
          <mxGeometry relative="1" as="geometry" />
        </mxCell>
        <mxCell id="6rkK3X_Y7HJ2kkGCpfae-32" value="let&amp;nbsp;" style="rounded=0;whiteSpace=wrap;html=1;fontSize=9;" vertex="1" parent="WIyWlLk6GJQsqaUBKTNV-1">
          <mxGeometry x="414" y="720" width="116" height="60" as="geometry" />
        </mxCell>
        <mxCell id="6rkK3X_Y7HJ2kkGCpfae-36" style="edgeStyle=none;curved=1;rounded=0;orthogonalLoop=1;jettySize=auto;html=1;fontSize=9;startSize=8;endSize=8;" edge="1" parent="WIyWlLk6GJQsqaUBKTNV-1" source="6rkK3X_Y7HJ2kkGCpfae-35">
          <mxGeometry relative="1" as="geometry">
            <mxPoint x="473" y="910" as="targetPoint" />
          </mxGeometry>
        </mxCell>
        <mxCell id="6rkK3X_Y7HJ2kkGCpfae-35" value="&quot;Give me a &lt;br&gt;positive number&quot;" style="shape=parallelogram;perimeter=parallelogramPerimeter;whiteSpace=wrap;html=1;fixedSize=1;fontSize=9;" vertex="1" parent="WIyWlLk6GJQsqaUBKTNV-1">
          <mxGeometry x="414.5" y="810" width="115" height="60" as="geometry" />
        </mxCell>
        <mxCell id="6rkK3X_Y7HJ2kkGCpfae-40" style="edgeStyle=none;curved=1;rounded=0;orthogonalLoop=1;jettySize=auto;html=1;fontSize=9;startSize=8;endSize=8;" edge="1" parent="WIyWlLk6GJQsqaUBKTNV-1" source="6rkK3X_Y7HJ2kkGCpfae-39">
          <mxGeometry relative="1" as="geometry">
            <mxPoint x="469.5" y="1010" as="targetPoint" />
          </mxGeometry>
        </mxCell>
        <mxCell id="6rkK3X_Y7HJ2kkGCpfae-39" value="store user&#39;s input in&lt;br&gt;variable number" style="rounded=0;whiteSpace=wrap;html=1;fontSize=9;" vertex="1" parent="WIyWlLk6GJQsqaUBKTNV-1">
          <mxGeometry x="409.5" y="910" width="120" height="60" as="geometry" />
        </mxCell>
        <mxCell id="6rkK3X_Y7HJ2kkGCpfae-43" style="edgeStyle=none;curved=1;rounded=0;orthogonalLoop=1;jettySize=auto;html=1;fontSize=9;startSize=8;endSize=8;" edge="1" parent="WIyWlLk6GJQsqaUBKTNV-1" source="6rkK3X_Y7HJ2kkGCpfae-41">
          <mxGeometry relative="1" as="geometry">
            <mxPoint x="640" y="1040" as="targetPoint" />
          </mxGeometry>
        </mxCell>
        <mxCell id="6rkK3X_Y7HJ2kkGCpfae-41" value="input_number = value" style="rounded=0;whiteSpace=wrap;html=1;fontSize=9;" vertex="1" parent="WIyWlLk6GJQsqaUBKTNV-1">
          <mxGeometry x="409.5" y="1010" width="120" height="60" as="geometry" />
        </mxCell>
        <mxCell id="6rkK3X_Y7HJ2kkGCpfae-49" style="edgeStyle=none;curved=1;rounded=0;orthogonalLoop=1;jettySize=auto;html=1;fontSize=9;startSize=8;endSize=8;" edge="1" parent="WIyWlLk6GJQsqaUBKTNV-1" source="6rkK3X_Y7HJ2kkGCpfae-48" target="6rkK3X_Y7HJ2kkGCpfae-50">
          <mxGeometry relative="1" as="geometry">
            <mxPoint x="640" y="970" as="targetPoint" />
          </mxGeometry>
        </mxCell>
        <mxCell id="6rkK3X_Y7HJ2kkGCpfae-48" value="index = 0" style="rounded=0;whiteSpace=wrap;html=1;fontSize=9;" vertex="1" parent="WIyWlLk6GJQsqaUBKTNV-1">
          <mxGeometry x="580" y="940" width="120" height="50" as="geometry" />
        </mxCell>
        <mxCell id="6rkK3X_Y7HJ2kkGCpfae-51" style="edgeStyle=none;curved=1;rounded=0;orthogonalLoop=1;jettySize=auto;html=1;fontSize=9;startSize=8;endSize=8;entryX=1;entryY=0.5;entryDx=0;entryDy=0;exitX=0;exitY=0.5;exitDx=0;exitDy=0;" edge="1" parent="WIyWlLk6GJQsqaUBKTNV-1" source="6rkK3X_Y7HJ2kkGCpfae-50" target="6rkK3X_Y7HJ2kkGCpfae-35">
          <mxGeometry relative="1" as="geometry">
            <mxPoint x="640" y="810" as="targetPoint" />
          </mxGeometry>
        </mxCell>
        <mxCell id="6rkK3X_Y7HJ2kkGCpfae-55" style="edgeStyle=none;curved=1;rounded=0;orthogonalLoop=1;jettySize=auto;html=1;exitX=0.5;exitY=0;exitDx=0;exitDy=0;fontSize=9;startSize=8;endSize=8;" edge="1" parent="WIyWlLk6GJQsqaUBKTNV-1" source="6rkK3X_Y7HJ2kkGCpfae-50">
          <mxGeometry relative="1" as="geometry">
            <mxPoint x="639.8947368421054" y="740" as="targetPoint" />
          </mxGeometry>
        </mxCell>
        <mxCell id="6rkK3X_Y7HJ2kkGCpfae-50" value="the number&lt;br&gt;at index&lt;br&gt;is positive" style="rhombus;whiteSpace=wrap;html=1;fontSize=9;" vertex="1" parent="WIyWlLk6GJQsqaUBKTNV-1">
          <mxGeometry x="590" y="790" width="100" height="100" as="geometry" />
        </mxCell>
        <mxCell id="6rkK3X_Y7HJ2kkGCpfae-57" value="" style="endArrow=classic;html=1;rounded=0;fontSize=9;startSize=8;endSize=8;curved=1;" edge="1" parent="WIyWlLk6GJQsqaUBKTNV-1" target="6rkK3X_Y7HJ2kkGCpfae-48">
          <mxGeometry width="50" height="50" relative="1" as="geometry">
            <mxPoint x="640" y="1040" as="sourcePoint" />
            <mxPoint x="690" y="990" as="targetPoint" />
          </mxGeometry>
        </mxCell>
        <mxCell id="6rkK3X_Y7HJ2kkGCpfae-58" value="index +=&amp;nbsp;" style="rounded=0;whiteSpace=wrap;html=1;fontSize=9;" vertex="1" parent="WIyWlLk6GJQsqaUBKTNV-1">
          <mxGeometry x="580" y="680" width="120" height="60" as="geometry" />
        </mxCell>
      </root>
    </mxGraphModel>
  </diagram>
  <diagram id="Wx5rr5XtukEhyNtxBx1X" name="Page-2">
    <mxGraphModel dx="2196" dy="2620" grid="0" gridSize="10" guides="1" tooltips="1" connect="1" arrows="1" fold="1" page="0" pageScale="1" pageWidth="850" pageHeight="1100" math="0" shadow="0">
      <root>
        <mxCell id="0" />
        <mxCell id="1" parent="0" />
      </root>
    </mxGraphModel>
  </diagram>
</mxfile>
